<?xml version="1.0" encoding="utf-8"?>
<!-- Generator: Adobe Illustrator 18.0.0, SVG Export Plug-In . SVG Version: 6.00 Build 0)  -->
<!DOCTYPE svg PUBLIC "-//W3C//DTD SVG 1.1//EN" "http://www.w3.org/Graphics/SVG/1.1/DTD/svg11.dtd">
<svg version="1.1" id="Layer_1" xmlns="http://www.w3.org/2000/svg" xmlns:xlink="http://www.w3.org/1999/xlink" x="0px" y="0px"
	 viewBox="0 0 265.3 63" enable-background="new 0 0 265.3 63" xml:space="preserve">
<g>
	<g>
		<path fill="#FFFFFF" d="M37.4,30.6c1.8,0.7,5.5,2.1,8,0.4c0.2-0.2,4-3-4.4-10.4C32.5,13,37.9,8.7,39.6,8.2c-1.3-0.2-2.6-0.3-4-0.3
			c-13.1,0-23.7,10.6-23.7,23.7c0,2.8,0.5,5.4,1.3,7.9C13.3,32.5,19.1,23.6,37.4,30.6"/>
	</g>
	<g>
		<path fill="#FFFFFF" d="M42.8,8.9c-1.7-0.5-3.3,1.4-2.5,3.9c0.5,1.5,2,3.5,4.7,6.2c9.3,9.5,2.3,13.2,1.2,13.6
			c-3.1,1.4-7.5-0.3-9.7-0.8c-14.5-3.4-18.6,2-19.4,8.4C16.6,50.3,27,54.4,32.9,55.1c1.7,0,1.6-2.4,1.6-2.4v-5.5
			c0-4-2.5-4.3-2.5-4.3h5.7v12.3c12-1,21.6-11.2,21.6-23.6C59.3,20.9,52.4,12,42.8,8.9"/>
	</g>
	<g>
		<g>
			<path fill="#FFFFFF" d="M103.9,41.1c1-1.4,2.8-2.8,4.3-2.8c0.9,0,1.1,0.1,1.6,0.2v4c-0.6-0.9-1.6-1.5-2.6-1.5
				c-1.5,0-2.4,0.7-3.2,1.4v9c0,1.7,0.4,1.7,1,2h-5.6V40.9c0-1.5-0.7-2.5-1.4-2.6l6,0V41.1"/>
		</g>
		<g>
			<path fill="#FFFFFF" d="M119.1,38.4c2.2,0,6.5,0.5,6.5,4.7v8.1c0,0.9,0.3,2.2,1.7,2.3h-4.5c-0.9,0-1.4-0.4-1.5-1.8
				c-1.2,1-3.3,2.1-5.9,2.1c-3.5,0-4.9-2.4-4.9-4c0-1.2,0.7-2.6,2.7-3.6c2-1,6.3-1.4,7.6-2.4c0.1-0.1,0.2-0.2,0.3-0.4
				c0.1-0.3,0.1-0.7,0.1-0.9c0-1.4-1-2.7-3.1-2.7c-3.1,0-4.7,2.1-5.6,4.1v-4.3C114,39.1,116,38.4,119.1,38.4 M119.8,45.9
				c-0.6,0.2-1.3,0.3-2.1,0.6c-1.6,0.5-2.8,1.3-2.8,2.7c0,1.6,1.2,2.4,2.8,2.4c1.5,0,2.6-0.5,3.5-1.2v-5"/>
		</g>
		<g>
			<path fill="#FFFFFF" d="M146.4,43v8.6c0,1.6,1,1.7,1.7,2h-6.1c0,0,0-0.5,0-1.3v-8.1c0-1.5-0.4-3.5-3.6-3.5
				c-1.4,0-2.8,0.8-3.5,1.4v10.1c0,0.8,0,1.3,0,1.3h-6.4c0.7-0.1,1.9-0.2,1.9-2V40.6c0-1.4-0.6-2.1-1.3-2.3l5.8,0v2.1
				c1.1-0.9,3.2-2.1,5.8-2.1C143.7,38.4,146.4,40,146.4,43"/>
		</g>
		<g>
			<path fill="#FFFFFF" d="M166.8,51.2c0,1.8,1,2.2,1.5,2.3h-4.4c-1.2,0-1.4-1.4-1.4-1.4c-1,0.7-3.2,1.7-5.3,1.7
				c-4.7,0-7.7-3.4-7.7-7.8c0-3.8,3.8-7.6,9.2-7.6c1.6,0,2.7,0.5,3.7,1l0-5.5c0-1.3-0.8-2.1-1.4-2.3l5.9,0V51.2 M162.3,50.9v-9.8
				c-0.6-0.6-1.4-1.2-2.8-1.2c-3.5,0-5.3,2.8-5.3,5.8c0,4.9,3.6,6,5.3,6C160.6,51.7,161.7,51.3,162.3,50.9"/>
		</g>
		<g>
			<path fill="#FFFFFF" d="M243.1,42.3c0-1.3,1.2-3.6,5.1-3.6c1,0,2.3,0.2,3.9,1.1V43c-0.5-1.7-1.8-3.5-4.2-3.5c-2,0-3,1.2-3,2.1
				c0,1.4,1.1,2,3.3,3c2.5,1.2,5.2,2.4,5.2,4.9c0,2.7-3.2,4.2-6.1,4.2c-2.1,0-3.7-1-4.7-1.6v-3.5c0.6,2.2,2.3,4,4.9,4
				c3,0,3.8-2,3.8-2.8c0-1.8-1.6-2.3-4.3-3.6C244.1,45,243.1,44.1,243.1,42.3"/>
		</g>
		<g>
			<path fill="#FFFFFF" d="M89.1,44.1c0.6,0.3,1,0.7,1,1.4V51c-1.8,1-4.1,1-4.9,1c-8,0-10.7-5.4-10.7-9.7c0-5.1,3.8-9.1,10.4-9.1
				c1.7,0,6.3,0.6,8.4,4.4v-4.5c-3.1-1.1-5.9-1.6-9.1-1.6c-9.9,0-15,5.6-15,11.2c0,6.7,6.8,11,14.6,11c2.9,0,8-0.7,11.3-2l0-7.7
				H89.1"/>
		</g>
		<g>
			<path fill="#FFFFFF" d="M178.8,40.8c-3.9-1.7-5.2-2.5-5.2-4.5c0-1.4,0.9-3.6,4.6-3.6c3.1,0,5.2,2,5.8,3.5v-2.9l0-0.3
				c-1.7-1-3.7-1.3-5.2-1.3c-4,0-7.6,2-7.6,5.3c0,2.7,2.2,4.2,6.2,5.7c4,1.5,6.2,2.3,6.2,5.3c0,1.6-0.9,4.7-5.5,4.7
				c-4,0-6-2.5-6.9-4.7v3.7c1.4,0.8,3.6,2,6.9,2c3.5,0,8.1-2.3,8.1-6.3C186.2,43.4,182.7,42.5,178.8,40.8"/>
		</g>
		<g>
			<path fill="#FFFFFF" d="M191.5,49.3V40h0.8v0h3.8V39h-4.6v-2.6l-2.1,0l0,2.6h-2.3V40h2.3v9.5c0,3,2.2,4.2,4.7,4.2
				c1.7,0,3.5-1.1,3.5-1.9c-0.5,0.3-1,0.8-2.6,0.8C193.7,52.7,191.5,52.2,191.5,49.3"/>
		</g>
		<g>
			<path fill="#FFFFFF" d="M205.9,38.7c-5,0-8,4-8,7.4c0,3.5,2.4,7.6,7.9,7.6c4.9,0,8-4,8.1-7.5C213.9,42.8,211.6,38.7,205.9,38.7
				 M206.2,52.9c-3.8,0.1-5.8-3.3-5.9-6.5c-0.2-3.2,1.4-6.7,5.2-6.9c3.8-0.1,5.7,3.3,5.9,6.5C211.5,49.2,210.1,52.7,206.2,52.9"/>
		</g>
		<g>
			<path fill="#FFFFFF" d="M219.5,41.5v-2.8l-3.5,0c0.7,0.2,1.4,0.6,1.4,2v11.7c0,0.7-0.4,0.9-1,1.2h4.2c-0.6-0.3-1.1-0.4-1.1-1.2
				v-9.9c0.8-0.9,2.1-2,3.7-2c0.9,0,1.3,0.2,1.9,0.5v-2c-0.5-0.1-0.4-0.2-1.4-0.2C222.4,38.7,220.2,40.6,219.5,41.5"/>
		</g>
		<g>
			<path fill="#FFFFFF" d="M234.3,52.3c-4.2,0-6.4-2.6-6.4-6.4c0-0.3,0-0.7,0-1h12.7c0-4.5-4-6.2-6.6-6.2c-6.1,0-8.7,4.6-8.7,7.7
				c0,3.2,2.8,7.4,8.4,7.4c3.8,0,6.7-2.4,6.9-5C240,50.3,237.1,52.3,234.3,52.3 M233.5,39.5c2.4,0,4.8,1,4.8,4.5h-10.2
				C228.5,41.8,230.1,39.5,233.5,39.5"/>
		</g>
	</g>
	<g>
		<g>
			<path fill="#FFFFFF" d="M196.6,23.5V10.8c0-0.7,0.4-1.1,1-1.4h-3.5v16.8C196.7,26.2,196.6,23.5,196.6,23.5"/>
		</g>
		<g>
			<path fill="#FFFFFF" d="M252.1,26.7V10.8c0-0.7,0.4-1.1,1-1.4h-3.5c0,0,0,0.7,0,1.4l0,17.4h3.5C252.5,27.9,252.1,27.5,252.1,26.7
				"/>
		</g>
		<g>
			<path fill="#FFFFFF" d="M196.6,23.5V10.8c0-0.7,0.4-1.1,1-1.4h-3.5v16.8C196.7,26.2,196.6,23.5,196.6,23.5"/>
		</g>
		<g>
			<path fill="#FFFFFF" d="M189,18.6v8.3c-5.3,0-8.6,0-16.8,0l0-0.1v-8.1c0-0.7,0.4-1.1,1-1.4h-3.5c0,0,0,0.7,0,1.4l0,9.5h21.6l0-11
				h-3.5C188.5,17.5,189,17.9,189,18.6"/>
		</g>
		<g>
			<path fill="#FFFFFF" d="M178.4,19.8c0.8,0,1.4-0.6,1.4-1.4c0-0.8-0.6-1.4-1.4-1.4c-0.8,0-1.4,0.6-1.4,1.4
				C177,19.2,177.6,19.8,178.4,19.8"/>
		</g>
		<g>
			<path fill="#FFFFFF" d="M181.8,19.8c0.8,0,1.4-0.6,1.4-1.4c0-0.8-0.6-1.4-1.4-1.4c-0.8,0-1.4,0.6-1.4,1.4
				C180.4,19.2,181,19.8,181.8,19.8"/>
		</g>
		<g>
			<path fill="#FFFFFF" d="M165.8,26.2l0-16.9H160c0.6,0.3,1.4,0.5,1.4,2l-0.1,17h6.2C165.8,28.3,165.8,26.9,165.8,26.2"/>
		</g>
		<g>
			<path fill="#FFFFFF" d="M107.5,24c-1.2,0-2.1,0.9-2.1,2.1c0,1.2,0.9,2.1,2.1,2.1c1.2,0,2.1-0.9,2.1-2.1
				C109.6,24.9,108.7,24,107.5,24"/>
		</g>
		<g>
			<path fill="#FFFFFF" d="M96,23c-0.4-3.9-4.5-5.6-7.7-6.7c-3.4-1.1-5-1.7-5-3.3c0-1.1,1.1-2.5,3.9-2.5c3.5,0,5.6,2.1,6.1,3.4
				l-0.2-3.8c-1.9-0.8-4.3-1-5.5-1c-3.3,0-8,1.4-8,4.9c0,2,1.5,3.4,4.8,4.7c2.6,1,6.7,1.8,6.7,4.5c0,3.1-4.9,3.3-5.7,3.3
				c-8,0-10.7-5.4-10.7-9.7l0-3h-5.3v3.4c0,6.8,6.8,11,14.6,11C95.4,28.2,96,25,96,23"/>
		</g>
		<g>
			<path fill="#FFFFFF" d="M152.7,9.4c0.6,0.2,1,0.7,1,1.4v15.3h-3v-2.6c0-1.8,0.4-7.8-12.6-7.8c-0.3,0-8,0-10.6,0l10.6-6.3h-5.9
				c0.5,0.3,0.2,0.7-0.2,1l-13.4,8c0,0,18.9,0,19.1,0c7,0,6.9,3.2,7.2,6.3v1.4h-27.2c0,0-1.5,0.2-1.5-1.3c0-1.5,0-11.6,0-11.6h-4.4
				v1c0,2.4-1.1,3.8-3.7,3.7c-1.3-0.1-2.7-0.7-3.3-1.3c0-1.9,0-3.4,0-3.4h-5.6c0.9,0.6,1,1.4,1,2.7c0,0,0,2.7,0,4.3
				c0,0.6,0,1.2,0,1.8c0,2.8,0.2,5.6-4.9,6.3H95v0.1h1.7c7.5-0.1,7.8-4.2,7.8-6.9c0-0.9,0-2.1,0-3.2c1.1,0.9,3.2,2.1,5.7,2.1
				c0.5,0,1,0,1.4-0.1v4.4c0,4,4.4,3.8,4.4,3.8l42.2,0v-19H152.7"/>
		</g>
		<g>
			<path fill="#FFFFFF" d="M248.2,9.4h-3.5l0,17.5c-0.4,0.1-2.2,0-3.3,0c0.3-0.7,0.4-1.3,0.4-2c0-3-1.9-6.5-6.8-6.5
				c-4.3,0-6.9,3.4-6.9,6.4c0,0.7,0.1,1.4,0.3,2.1c-0.6,0-1.7,0-2.9,0c-0.6-4.4-4.3-9.1-10-9.5h0c0,0-3.1-0.1-5.1,1.1l-0.2,3.1
				c0.7-1.4,1.8-3.3,5.3-3.2c4.6,0.3,6.9,4.3,7.2,8.5c-4.3,0-10.2,0-21.2,0c1.8-1,3.2-2.4,3.2-5.2V10.9c0-0.7,0.5-1.1,1.1-1.3
				l0.1-0.1h-3.7l0,12.2c0,1.9-0.8,5.2-5.4,5.2l-2.8,0v1.3H229c1,1.8,2.9,3.1,5.9,3.1c2.6,0,4.7-1.4,5.8-3.1h6.4l0-17.4
				C247.1,10.1,247.5,9.7,248.2,9.4 M235.2,30.2c-3.1,0.1-4.7-2.7-4.8-5.2c-0.1-2.6,1.1-5.5,4.2-5.6c3.1-0.1,4.6,2.7,4.8,5.2
				C239.6,27.2,238.4,30.1,235.2,30.2"/>
		</g>
	</g>
</g>
</svg>
