<?xml version="1.0" encoding="utf-8"?>
<!-- Generator: Adobe Illustrator 18.0.0, SVG Export Plug-In . SVG Version: 6.00 Build 0)  -->
<!DOCTYPE svg PUBLIC "-//W3C//DTD SVG 1.1//EN" "http://www.w3.org/Graphics/SVG/1.1/DTD/svg11.dtd">
<svg version="1.1" id="Layer_1" xmlns="http://www.w3.org/2000/svg" xmlns:xlink="http://www.w3.org/1999/xlink" x="0px" y="0px"
	 viewBox="0 0 524.4 76.5" enable-background="new 0 0 524.4 76.5" xml:space="preserve">
<g id="Layer_1_1_">
</g>
<g>
	<g id="Ebene_x0020_1">
		<g>
			<path fill="#10181A" d="M12.2,12.8h16l9.6,19.1L23.4,54.2H7.5l14.4-22.3C21.8,31.9,12.2,12.8,12.2,12.8z M72.8,76.5h-16
				L34.5,44.6L63.2,0h16L50.5,44.6L72.8,76.5z"/>
		</g>
	</g>
	<g>
		<path fill="#10181A" d="M91.6,65.5V13.2h14.9c4.5,0,8.1,1.1,10.8,3.3c2.6,2.2,4,5.1,4,8.6c0,3-0.8,5.5-2.4,7.7s-3.8,3.7-6.6,4.7
			v0.1c3.5,0.4,6.3,1.7,8.5,4c2.1,2.2,3.2,5.2,3.2,8.8c0,4.5-1.6,8.1-4.8,10.9s-7.3,4.2-12.1,4.2C107.1,65.5,91.6,65.5,91.6,65.5z
			 M97.7,18.7v16.9h6.3c3.4,0,6-0.8,7.9-2.4c1.9-1.6,2.9-3.9,2.9-6.8c0-5.1-3.3-7.6-10-7.6L97.7,18.7L97.7,18.7z M97.7,41.1v18.8
			h8.3c3.6,0,6.4-0.9,8.4-2.6c2-1.7,3-4,3-7c0-6.2-4.2-9.3-12.6-9.3L97.7,41.1L97.7,41.1z"/>
		<path fill="#10181A" d="M163.8,65.5h-6v-5.9h-0.1c-2.5,4.5-6.3,6.8-11.5,6.8c-8.9,0-13.3-5.3-13.3-15.9V28.1h5.9v21.4
			c0,7.9,3,11.8,9,11.8c2.9,0,5.3-1.1,7.2-3.2c1.9-2.2,2.8-5,2.8-8.4V28.1h6L163.8,65.5L163.8,65.5z"/>
		<path fill="#10181A" d="M173.6,64.1v-6.4c3.3,2.4,6.8,3.6,10.8,3.6c5.3,0,7.9-1.8,7.9-5.3c0-1-0.2-1.8-0.7-2.5
			c-0.5-0.7-1.1-1.3-1.8-1.8c-0.8-0.5-1.7-1-2.7-1.4c-1-0.4-2.1-0.9-3.3-1.3c-1.7-0.7-3.1-1.3-4.4-2c-1.3-0.7-2.3-1.4-3.1-2.3
			c-0.8-0.8-1.5-1.8-1.9-2.9c-0.4-1.1-0.6-2.3-0.6-3.8c0-1.8,0.4-3.3,1.2-4.6c0.8-1.3,1.9-2.5,3.2-3.4c1.3-0.9,2.9-1.6,4.6-2.1
			c1.7-0.5,3.5-0.7,5.3-0.7c3.2,0,6.1,0.6,8.7,1.7V35c-2.7-1.8-5.9-2.7-9.5-2.7c-1.1,0-2.1,0.1-3,0.4s-1.7,0.6-2.3,1.1
			c-0.6,0.5-1.1,1-1.5,1.7c-0.4,0.6-0.5,1.4-0.5,2.1c0,1,0.2,1.8,0.5,2.4c0.4,0.7,0.9,1.2,1.5,1.8c0.7,0.5,1.5,1,2.5,1.4
			s2.1,0.9,3.3,1.3c1.7,0.6,3.1,1.3,4.4,2c1.3,0.7,2.4,1.4,3.4,2.3c0.9,0.8,1.6,1.8,2.1,2.9c0.5,1.1,0.7,2.4,0.7,3.9
			c0,1.8-0.4,3.5-1.2,4.8c-0.8,1.3-1.9,2.5-3.3,3.4c-1.4,0.9-2.9,1.6-4.7,2s-3.6,0.7-5.6,0.7C179.7,66.3,176.4,65.6,173.6,64.1z"/>
		<path fill="#10181A" d="M210.6,26.6c-1.1,0-2-0.4-2.7-1.1c-0.8-0.7-1.1-1.7-1.1-2.8c0-1.1,0.4-2,1.1-2.8c0.8-0.7,1.7-1.1,2.7-1.1
			c1.1,0,2,0.4,2.8,1.1s1.1,1.7,1.1,2.8c0,1.1-0.4,2-1.1,2.7S211.7,26.6,210.6,26.6z M213.5,65.5h-6V28.1h6V65.5z"/>
		<path fill="#10181A" d="M256.6,65.5h-6V44.2c0-7.9-2.9-11.9-8.7-11.9c-3,0-5.5,1.1-7.4,3.4c-1.9,2.3-2.9,5.1-2.9,8.5v21.3h-6V28.1
			h6v6.2h0.1c2.8-4.7,6.9-7.1,12.3-7.1c4.1,0,7.2,1.3,9.4,4c2.2,2.6,3.2,6.4,3.2,11.4L256.6,65.5L256.6,65.5z"/>
		<path fill="#10181A" d="M297.9,48.3h-26.4c0.1,4.2,1.2,7.4,3.4,9.6c2.1,2.3,5.1,3.4,8.8,3.4c4.2,0,8.1-1.4,11.6-4.2v5.6
			c-3.3,2.4-7.6,3.6-13,3.6c-5.3,0-9.4-1.7-12.4-5.1c-3-3.4-4.5-8.2-4.5-14.3c0-5.8,1.6-10.5,4.9-14.2c3.3-3.7,7.4-5.5,12.3-5.5
			c4.9,0,8.7,1.6,11.3,4.7c2.7,3.2,4,7.5,4,13.2L297.9,48.3L297.9,48.3z M291.7,43.2c0-3.5-0.9-6.1-2.5-8.1
			c-1.6-1.9-3.9-2.9-6.8-2.9c-2.8,0-5.2,1-7.2,3s-3.2,4.7-3.6,7.9h20.1V43.2z"/>
		<path fill="#10181A" d="M304.7,64.1v-6.4c3.3,2.4,6.8,3.6,10.8,3.6c5.3,0,7.9-1.8,7.9-5.3c0-1-0.2-1.8-0.7-2.5
			c-0.5-0.7-1.1-1.3-1.8-1.8c-0.8-0.5-1.7-1-2.7-1.4c-1-0.4-2.1-0.9-3.3-1.3c-1.7-0.7-3.1-1.3-4.4-2c-1.3-0.7-2.3-1.4-3.1-2.3
			c-0.8-0.9-1.5-1.8-1.9-2.9c-0.4-1.1-0.6-2.3-0.6-3.8c0-1.8,0.4-3.3,1.2-4.6c0.8-1.3,1.9-2.5,3.2-3.4s2.9-1.6,4.6-2.1
			s3.5-0.7,5.3-0.7c3.2,0,6.1,0.6,8.7,1.7V35c-2.7-1.8-5.9-2.7-9.5-2.7c-1.1,0-2.1,0.1-3,0.4c-0.9,0.3-1.7,0.6-2.3,1.1
			c-0.6,0.5-1.1,1-1.5,1.7c-0.4,0.6-0.5,1.4-0.5,2.1c0,1,0.2,1.8,0.5,2.4c0.4,0.7,0.9,1.2,1.5,1.8c0.7,0.5,1.5,1,2.5,1.4
			s2.1,0.9,3.3,1.3c1.7,0.6,3.1,1.3,4.4,2c1.3,0.7,2.4,1.4,3.4,2.3c0.9,0.8,1.6,1.8,2.1,2.9c0.5,1.1,0.7,2.4,0.7,3.9
			c0,1.8-0.4,3.5-1.2,4.8c-0.8,1.3-1.9,2.5-3.3,3.4s-2.9,1.6-4.7,2s-3.6,0.7-5.6,0.7C310.8,66.3,307.5,65.6,304.7,64.1z"/>
		<path fill="#10181A" d="M336.3,64.1v-6.4c3.3,2.4,6.8,3.6,10.8,3.6c5.3,0,7.9-1.8,7.9-5.3c0-1-0.2-1.8-0.7-2.5
			c-0.5-0.7-1.1-1.3-1.8-1.8c-0.8-0.5-1.7-1-2.7-1.4c-1-0.4-2.1-0.9-3.3-1.3c-1.7-0.7-3.1-1.3-4.4-2c-1.3-0.7-2.3-1.4-3.1-2.3
			c-0.8-0.9-1.5-1.8-1.9-2.9c-0.4-1.1-0.6-2.3-0.6-3.8c0-1.8,0.4-3.3,1.2-4.6c0.8-1.3,1.9-2.5,3.2-3.4s2.9-1.6,4.6-2.1
			s3.5-0.7,5.3-0.7c3.2,0,6.1,0.6,8.7,1.7V35c-2.7-1.8-5.9-2.7-9.5-2.7c-1.1,0-2.1,0.1-3,0.4c-0.9,0.3-1.7,0.6-2.3,1.1
			c-0.6,0.5-1.1,1-1.5,1.7c-0.4,0.6-0.5,1.4-0.5,2.1c0,1,0.2,1.8,0.5,2.4c0.4,0.7,0.9,1.2,1.5,1.8c0.7,0.5,1.5,1,2.5,1.4
			c1,0.4,2.1,0.9,3.3,1.3c1.7,0.6,3.1,1.3,4.4,2c1.3,0.7,2.4,1.4,3.4,2.3c0.9,0.8,1.6,1.8,2.1,2.9c0.5,1.1,0.7,2.4,0.7,3.9
			c0,1.8-0.4,3.5-1.2,4.8c-0.8,1.3-1.9,2.5-3.3,3.4c-1.4,0.9-2.9,1.6-4.7,2c-1.8,0.4-3.6,0.7-5.6,0.7
			C342.5,66.3,339.2,65.6,336.3,64.1z"/>
		<path fill="#10181A" d="M371,65.5V13.2h25.5v4.4h-20.6v19.2H395v4.4h-19.1V61h21.8v4.4L371,65.5L371,65.5z"/>
		<path fill="#10181A" d="M421,47.1l12.3,18.4h-5.6L420,53.1c-0.3-0.5-0.6-0.9-0.9-1.4c-0.3-0.5-0.6-1-0.9-1.6h-0.1
			c-0.1,0.2-0.3,0.6-0.6,1c-0.3,0.4-0.6,0.9-0.9,1.5l-8.2,12.9h-5.5l12.6-18.3l-12.2-19.1h5.4l7.8,13.1c0.4,0.7,0.7,1.2,1,1.8
			c0.3,0.5,0.5,1,0.7,1.3h0.1c0.3-0.5,0.6-0.9,0.9-1.4c0.3-0.5,0.5-1,0.8-1.4l8.2-13.3h5.3L421,47.1z"/>
		<path fill="#10181A" d="M465,63.8c-2.8,1.7-6.1,2.5-10.1,2.6c-2.7,0-5.1-0.4-7.2-1.4c-2.1-0.9-4-2.3-5.5-4c-1.5-1.7-2.7-3.7-3.5-6
			c-0.8-2.3-1.2-4.8-1.2-7.5c0-2.8,0.4-5.4,1.3-7.9c0.9-2.5,2.1-4.6,3.7-6.5c1.6-1.8,3.6-3.3,6-4.4c2.4-1.1,5.1-1.6,8.1-1.6
			c3.1,0,5.9,0.6,8.5,1.8v5c-2.7-1.8-5.7-2.7-8.8-2.7c-2.2,0-4.2,0.4-5.9,1.3c-1.7,0.8-3.2,2-4.4,3.4c-1.2,1.4-2.1,3.1-2.7,5.1
			c-0.6,1.9-0.9,4-0.9,6.1c0,2,0.3,3.9,0.8,5.7c0.5,1.8,1.3,3.4,2.4,4.8c1.1,1.4,2.4,2.5,4.1,3.3s3.6,1.2,5.8,1.2
			c3.5,0,6.7-1,9.5-3.1L465,63.8L465,63.8z"/>
		<path fill="#10181A" d="M476.2,47.6c0,2.3,0.3,4.3,0.9,6.2c0.6,1.8,1.4,3.4,2.5,4.6c1.1,1.3,2.4,2.2,4,2.9c1.6,0.7,3.3,1,5.3,1
			c4.2,0,8.2-1.5,11.9-4.4v4.6c-3.6,2.6-7.9,3.8-13,3.8c-2.5,0-4.8-0.4-6.8-1.3s-3.8-2.1-5.2-3.8c-1.4-1.7-2.5-3.7-3.3-6.1
			c-0.8-2.4-1.2-5.2-1.2-8.3c0-2.8,0.4-5.4,1.3-7.8c0.9-2.4,2-4.4,3.5-6.2c1.5-1.7,3.3-3.1,5.4-4.1s4.3-1.5,6.8-1.5
			c2.4,0,4.5,0.4,6.4,1.3c1.8,0.8,3.4,2,4.6,3.6c1.3,1.6,2.2,3.5,2.9,5.7c0.7,2.2,1,4.7,1,7.5v2.3C503.2,47.6,476.2,47.6,476.2,47.6
			z M498.3,43.5c-0.1-3.9-1-6.9-2.8-9c-1.8-2.1-4.2-3.2-7.4-3.2c-1.6,0-3,0.3-4.4,0.8c-1.3,0.6-2.5,1.4-3.6,2.4
			c-1,1.1-1.9,2.3-2.5,3.9c-0.7,1.5-1.1,3.2-1.4,5.1H498.3z"/>
		<path fill="#10181A" d="M512.3,65.5V10.2h4.7v55.3H512.3z"/>
	</g>
</g>
<rect x="487.2" y="101.5" fill="#10181A" width="29.5" height="29.5"/>
</svg>
