<?xml version="1.0" encoding="utf-8"?>
<!-- Generator: Adobe Illustrator 18.0.0, SVG Export Plug-In . SVG Version: 6.00 Build 0)  -->
<!DOCTYPE svg PUBLIC "-//W3C//DTD SVG 1.1//EN" "http://www.w3.org/Graphics/SVG/1.1/DTD/svg11.dtd">
<svg version="1.1" id="Layer_1" xmlns="http://www.w3.org/2000/svg" xmlns:xlink="http://www.w3.org/1999/xlink" x="0px" y="0px"
	 viewBox="0 0 566.9 566.9" enable-background="new 0 0 566.9 566.9" xml:space="preserve">
<rect x="127.8" y="41.3" fill="none" stroke="#7C7C7C" stroke-miterlimit="10" width="136.8" height="94.8"/>
<rect x="41.6" y="41.9" fill="none" stroke="#7C7C7C" stroke-miterlimit="10" width="27.9" height="81.8"/>
<rect x="69.4" y="41.3" fill="none" stroke="#7C7C7C" stroke-miterlimit="10" width="58.3" height="23.6"/>
<path fill="none" stroke="#000000" stroke-miterlimit="10" d="M121.1,60.9h-10.1c-1.5,0-2.7-1.2-2.7-2.7V48c0-1.5,1.2-2.7,2.7-2.7
	h10.1c1.5,0,2.7,1.2,2.7,2.7v10.1C123.8,59.7,122.6,60.9,121.1,60.9z"/>
<rect x="41.6" y="123.7" fill="none" stroke="#7C7C7C" stroke-miterlimit="10" width="27.9" height="27.9"/>
<rect x="127.8" y="136.1" fill="none" stroke="#7C7C7C" stroke-miterlimit="10" width="27.9" height="27.9"/>
<rect x="155.6" y="136.1" fill="none" stroke="#7C7C7C" stroke-miterlimit="10" width="29.7" height="29.7"/>
<rect x="185.3" y="136.1" fill="none" stroke="#7C7C7C" stroke-miterlimit="10" width="29.7" height="29.7"/>
<rect x="215.2" y="198.9" fill="none" stroke="#7C7C7C" stroke-miterlimit="10" width="27.9" height="27.9"/>
<path fill="none" stroke="#7C7C7C" stroke-miterlimit="10" d="M359.6,226.7h-70.1c-7.7,0-20.2-6.2-20.2-13.9v0
	c0-7.7,12.5-13.9,20.2-13.9h70.1V226.7z"/>
<rect x="161.5" y="198.9" fill="none" stroke="#7C7C7C" stroke-miterlimit="10" width="27.9" height="27.9"/>
<rect x="94.4" y="198.9" fill="none" stroke="#7C7C7C" stroke-miterlimit="10" width="67.1" height="27.9"/>
<rect x="264.7" y="74.3" fill="none" stroke="#7C7C7C" stroke-miterlimit="10" width="27.9" height="27.9"/>
<rect x="308.4" y="41.3" fill="none" stroke="#DB0000" stroke-miterlimit="10" width="122.2" height="60.8"/>
<rect x="359.6" y="165.9" fill="none" stroke="#DB0000" stroke-miterlimit="10" width="122.2" height="60.8"/>
<rect x="430.6" y="41.3" fill="none" stroke="#DB0000" stroke-miterlimit="10" width="122.2" height="60.8"/>
<rect x="523.1" y="162.8" fill="none" stroke="#7C7C7C" stroke-miterlimit="10" width="29.7" height="64"/>
<rect x="8.1" y="159.9" fill="none" stroke="#7C7C7C" stroke-miterlimit="10" width="10.2" height="65.3"/>
<rect x="217.4" y="129.8" fill="none" stroke="#7C7C7C" stroke-miterlimit="10" width="47.2" height="12.8"/>
<rect x="130.8" y="43.4" fill="none" stroke="#7C7C7C" stroke-width="0.9558" stroke-miterlimit="10" width="37.7" height="89.8"/>
<path fill="none" stroke="#7C7C7C" stroke-width="0.9558" stroke-miterlimit="10" d="M195.2,74.9h-6.9c-5.1,0-9.1-4.1-9.1-9.1V43.4
	h25.2v22.3C204.4,70.8,200.3,74.9,195.2,74.9z"/>
<path fill="none" stroke="#000000" stroke-width="0.9558" stroke-miterlimit="10" d="M194.6,69.9h-5.8c-2.8,0-5.1-2.3-5.1-5.1v-2.1
	c0-2.8,2.3-5.1,5.1-5.1h5.8c2.8,0,5.1,2.3,5.1,5.1v2.1C199.7,67.6,197.4,69.9,194.6,69.9z"/>
<rect x="225.4" y="43.4" fill="none" stroke="#7C7C7C" stroke-width="0.9558" stroke-miterlimit="10" width="36.2" height="21.7"/>
<path fill="none" stroke="#000000" stroke-width="0.9558" stroke-miterlimit="10" d="M252.3,60.5h-17.6c-2.3,0-4.2-1.9-4.2-4.2v-4.3
	c0-2.3,1.9-4.2,4.2-4.2h17.6c2.3,0,4.2,1.9,4.2,4.2v4.3C256.4,58.7,254.6,60.5,252.3,60.5z"/>
<polygon fill="none" stroke="#161616" stroke-miterlimit="10" points="552.8,226.7 13.3,226.7 13.3,155 41.6,155 41.6,41.3 
	552.8,41.3 "/>
<path fill="none" stroke="#000000" stroke-width="0.9558" stroke-miterlimit="10" d="M152.6,128h-6.1c-5.8,0-10.4-4.7-10.4-10.4
	V59.9c0-5.8,4.7-10.4,10.4-10.4h6.1c5.8,0,10.4,4.7,10.4,10.4v57.6C163,123.3,158.3,128,152.6,128z"/>
</svg>
