<?xml version="1.0" encoding="utf-8"?>
<!-- Generator: Adobe Illustrator 18.0.0, SVG Export Plug-In . SVG Version: 6.00 Build 0)  -->
<!DOCTYPE svg PUBLIC "-//W3C//DTD SVG 1.1//EN" "http://www.w3.org/Graphics/SVG/1.1/DTD/svg11.dtd">
<svg version="1.1" id="Layer_1" xmlns="http://www.w3.org/2000/svg" xmlns:xlink="http://www.w3.org/1999/xlink" x="0px" y="0px"
	 viewBox="0 0 185 27" enable-background="new 0 0 185 27" xml:space="preserve">
<g>
	<g>
		<path fill-rule="evenodd" clip-rule="evenodd" fill="#FFFFFF" d="M38.1,13.3c-2,0-5.3-2-9.4-2.1c-7.1,0-6.8,6.1-6.8,6.1l-0.1-0.3
			c-0.3-1.2-0.5-2.4-0.5-3.7c0-7.2,5.9-13.1,13.1-13.1c0.6,0,1.1,0,1.7,0.1c-1.5,0.7-2.1,3.5,0.7,6.1c3,2.8,3.6,4.2,3.6,5
			C40.2,12.3,40.1,13.3,38.1,13.3z"/>
		<path fill-rule="evenodd" clip-rule="evenodd" fill="#FFFFFF" d="M47.5,13.5c0,6.9-5.3,12.6-12.1,13.2v-6.9l-2.9,0.1
			c0.9,0,1.2,1.5,1.2,1.5s0,3.4,0,4.3c0,0.9-0.9,1-0.9,1c-6.3-0.9-9-4.2-9-7.9s2.3-5.9,6-5.9s7.8,1.4,8.9,1.4c1.1,0,3.4-0.2,3.4-3.2
			c0-3.7-5.5-5.8-5.5-8.8c0-1.2,0.7-1.5,1.1-1.6C43.4,2.2,47.5,7.4,47.5,13.5z"/>
	</g>
	<g>
		<path fill="#FFFFFF" d="M74.3,17.7c0,2.9-0.5,5.2-1.5,6.8c-1,1.6-2.8,2.4-5.3,2.4c-2.3,0-3.9-0.8-4.9-2.5c-1-1.7-1.5-4.9-1.5-9.6
			c0-0.6,0.1-2,0.2-4.4s0.3-4,0.5-4.9c0.2-0.9,0.6-1.6,1.2-2.4s1.2-1.3,2.1-1.6c0.8-0.4,1.8-0.5,2.9-0.5c1.6,0,3,0.5,4.1,1.4
			c1.2,1,1.8,2.2,1.9,3.8l-3.2,1.2c-0.3-2.4-1.2-3.7-2.8-3.7c-1.2,0-2.1,0.6-2.6,1.9c-0.5,1.3-0.7,3.4-0.7,6.3v1.3
			c0,1.7,0.1,3.3,0.2,4.9c0.1,1.5,0.2,2.7,0.3,3.4c0.1,0.7,0.3,1.3,0.6,1.7c0.3,0.4,0.6,0.7,0.9,0.9s0.7,0.2,1.1,0.2
			c0.8,0,1.5-0.3,1.9-0.8c0.5-0.5,0.8-1.2,0.9-2.2s0.3-2.6,0.3-4.8h-3.1v-3h6.5V17.7z"/>
		<path fill="#FFFFFF" d="M88.9,4.6c-1.1-0.6-2.1-0.9-3-0.9c-0.9,0-1.6,0.3-2.3,1C83,5.3,82.6,6.1,82.6,7c0,0.6,0.2,1.3,0.6,2
			c0.4,0.7,1.2,1.9,2.5,3.5c1.3,1.6,2.3,3,3,4.1c0.7,1.2,1,2.5,1,4c0,1.9-0.6,3.4-1.7,4.6C87,26.4,85.5,27,83.6,27
			c-1,0-2.2-0.3-3.7-0.9v-3c0,0,0.1,0,0.1,0.1c0.2,0.1,0.6,0.4,1.3,0.7c0.6,0.3,1.3,0.4,1.9,0.4c1,0,1.8-0.3,2.5-1
			c0.6-0.7,1-1.5,1-2.5c0-0.7-0.2-1.4-0.5-2c-0.3-0.6-0.9-1.4-1.8-2.5l-2.3-2.8c-0.9-1.1-1.5-2.1-2-3c-0.4-0.9-0.6-2-0.6-3.2
			c0-1.8,0.5-3.3,1.6-4.5S83.5,1,85.2,1c1.2,0,2.4,0.3,3.6,0.9V4.6z"/>
		<path fill="#FFFFFF" d="M118.7,4.6c-1.1-0.6-2.1-0.9-3-0.9c-0.9,0-1.6,0.3-2.3,1c-0.6,0.6-0.9,1.4-0.9,2.3c0,0.6,0.2,1.3,0.6,2
			c0.4,0.7,1.2,1.9,2.5,3.5c1.3,1.6,2.3,3,3,4.1c0.7,1.2,1,2.5,1,4c0,1.9-0.6,3.4-1.7,4.6c-1.1,1.2-2.6,1.8-4.4,1.8
			c-1,0-2.2-0.3-3.7-0.9v-3c0,0,0.1,0,0.1,0.1c0.2,0.1,0.6,0.4,1.3,0.7c0.6,0.3,1.3,0.4,1.9,0.4c1,0,1.8-0.3,2.5-1
			c0.6-0.7,1-1.5,1-2.5c0-0.7-0.2-1.4-0.5-2c-0.3-0.6-0.9-1.4-1.8-2.5l-2.3-2.8c-0.9-1.1-1.5-2.1-2-3c-0.4-0.9-0.6-2-0.6-3.2
			c0-1.8,0.5-3.3,1.6-4.5s2.5-1.7,4.2-1.7c1.2,0,2.4,0.3,3.6,0.9V4.6z"/>
		<path fill="#FFFFFF" d="M133.8,26.7h-3.3v-2.1h-0.1c-0.8,1.6-1.9,2.3-3.2,2.3c-1.1,0-2.1-0.5-3-1.6c-0.9-1.1-1.3-3.4-1.3-7.1
			c0-3.3,0.3-5.6,1-7c0.6-1.4,1.8-2.2,3.3-2.2c0.7,0,1.3,0.2,1.8,0.5c0.5,0.3,0.9,0.9,1.4,1.6h0.1V9.3h3.3V26.7z M128.5,24.1
			c0.8,0,1.4-0.5,1.7-1.5c0.3-1,0.4-2.7,0.4-5.1c0-2.1-0.1-3.6-0.4-4.4c-0.2-0.9-0.8-1.3-1.6-1.3c-0.8,0-1.4,0.4-1.7,1.2
			s-0.5,2.2-0.5,4.3c0,2.5,0.1,4.2,0.4,5.2C127.1,23.6,127.6,24.1,128.5,24.1z"/>
		<path fill="#FFFFFF" d="M141.5,26.7h-3.3V0.5h3.3V26.7z"/>
		<path fill="#FFFFFF" d="M156.4,18.6h-7.3c0,1.9,0.1,3.3,0.4,4.3s0.9,1.4,1.8,1.4c0.7,0,1.2-0.3,1.5-0.8c0.3-0.6,0.4-1.4,0.4-2.6h3
			c-0.1,4.1-1.8,6.1-5.2,6.1c-3.6,0-5.4-2.8-5.4-8.5c0-6.2,1.9-9.3,5.6-9.3c1.4,0,2.6,0.5,3.6,1.6c1,1.1,1.5,3.3,1.5,6.7V18.6z
			 M153.1,16.1c0-1.7-0.1-3-0.4-3.7c-0.3-0.7-0.8-1.1-1.5-1.1c-0.9,0-1.4,0.4-1.7,1.2c-0.3,0.8-0.4,2-0.4,3.6H153.1z"/>
		<path fill="#FFFFFF" d="M168.9,12.3c-1-0.4-1.8-0.6-2.6-0.6c-0.7,0-1.2,0.2-1.7,0.5c-0.4,0.3-0.6,0.8-0.6,1.4c0,0.5,0.2,1,0.5,1.4
			c0.4,0.5,1.1,1.2,2.2,2.1c1.1,0.9,1.9,1.8,2.3,2.5c0.5,0.7,0.7,1.6,0.7,2.5c0,1.4-0.5,2.5-1.4,3.4c-0.9,0.9-2.1,1.4-3.5,1.4
			c-0.9,0-2-0.2-3.3-0.7v-2.7c1.2,0.5,2.2,0.7,3.1,0.7c0.6,0,1.1-0.2,1.5-0.5c0.4-0.3,0.5-0.8,0.5-1.4c0-0.5-0.2-1.1-0.7-1.7
			s-1.3-1.4-2.4-2.3c-1.7-1.3-2.5-2.9-2.5-4.6c0-1.4,0.5-2.5,1.4-3.4s2-1.4,3.4-1.4c0.8,0,1.9,0.2,3.1,0.7V12.3z"/>
	</g>
</g>
</svg>
