<?xml version="1.0" encoding="utf-8"?>
<!-- Generator: Adobe Illustrator 18.0.0, SVG Export Plug-In . SVG Version: 6.00 Build 0)  -->
<!DOCTYPE svg PUBLIC "-//W3C//DTD SVG 1.1//EN" "http://www.w3.org/Graphics/SVG/1.1/DTD/svg11.dtd">
<svg version="1.1" id="Layer_1" xmlns="http://www.w3.org/2000/svg" xmlns:xlink="http://www.w3.org/1999/xlink" x="0px" y="0px"
	 viewBox="0 0 185 27" enable-background="new 0 0 185 27" xml:space="preserve">
<g id="Layer_1_1_">
</g>
<g>
	<g id="Ebene_x0020_1">
		<g>
			<path fill="#FFFFFF" d="M4.2,4.5h5.6l3.4,6.7l-5.1,7.9H2.6l5.1-7.9C7.6,11.3,4.2,4.5,4.2,4.5z M25.6,27H20l-7.9-11.3L22.2,0h5.6
				L17.8,15.7L25.6,27z"/>
		</g>
	</g>
	<g>
		<path fill="#FFFFFF" d="M32.3,23.1V4.7h5.3c1.6,0,2.9,0.4,3.8,1.2c0.9,0.8,1.4,1.8,1.4,3c0,1.1-0.3,1.9-0.8,2.7
			c-0.6,0.8-1.3,1.3-2.3,1.7v0c1.2,0.1,2.2,0.6,3,1.4c0.7,0.8,1.1,1.8,1.1,3.1c0,1.6-0.6,2.9-1.7,3.8s-2.6,1.5-4.3,1.5
			C37.7,23.1,32.3,23.1,32.3,23.1z M34.4,6.6v6h2.2c1.2,0,2.1-0.3,2.8-0.8c0.7-0.6,1-1.4,1-2.4c0-1.8-1.2-2.7-3.5-2.7L34.4,6.6
			L34.4,6.6z M34.4,14.5v6.6h2.9c1.3,0,2.3-0.3,3-0.9c0.7-0.6,1.1-1.4,1.1-2.5c0-2.2-1.5-3.3-4.4-3.3L34.4,14.5L34.4,14.5z"/>
		<path fill="#FFFFFF" d="M57.8,23.1h-2.1V21h0c-0.9,1.6-2.2,2.4-4.1,2.4c-3.1,0-4.7-1.9-4.7-5.6V9.9h2.1v7.6c0,2.8,1.1,4.2,3.2,4.2
			c1,0,1.9-0.4,2.5-1.1c0.7-0.8,1-1.8,1-3V9.9h2.1L57.8,23.1L57.8,23.1z"/>
		<path fill="#FFFFFF" d="M61.2,22.6v-2.3c1.2,0.8,2.4,1.3,3.8,1.3c1.9,0,2.8-0.6,2.8-1.9c0-0.4-0.1-0.6-0.2-0.9
			c-0.2-0.2-0.4-0.5-0.6-0.6c-0.3-0.2-0.6-0.4-1-0.5c-0.4-0.1-0.7-0.3-1.2-0.5c-0.6-0.2-1.1-0.5-1.6-0.7c-0.5-0.2-0.8-0.5-1.1-0.8
			c-0.3-0.3-0.5-0.6-0.7-1c-0.1-0.4-0.2-0.8-0.2-1.3c0-0.6,0.1-1.2,0.4-1.6c0.3-0.5,0.7-0.9,1.1-1.2s1-0.6,1.6-0.7
			c0.6-0.2,1.2-0.2,1.9-0.2c1.1,0,2.2,0.2,3.1,0.6v2.2c-1-0.6-2.1-1-3.4-1c-0.4,0-0.7,0-1.1,0.1s-0.6,0.2-0.8,0.4
			c-0.2,0.2-0.4,0.4-0.5,0.6c-0.1,0.2-0.2,0.5-0.2,0.7c0,0.4,0.1,0.6,0.2,0.8c0.1,0.2,0.3,0.4,0.5,0.6c0.2,0.2,0.5,0.4,0.9,0.5
			c0.4,0.1,0.7,0.3,1.2,0.5c0.6,0.2,1.1,0.5,1.6,0.7c0.5,0.2,0.8,0.5,1.2,0.8c0.3,0.3,0.6,0.6,0.7,1c0.2,0.4,0.2,0.8,0.2,1.4
			c0,0.6-0.1,1.2-0.4,1.7c-0.3,0.5-0.7,0.9-1.2,1.2c-0.5,0.3-1,0.6-1.7,0.7c-0.6,0.1-1.3,0.2-2,0.2C63.4,23.4,62.2,23.2,61.2,22.6z"
			/>
		<path fill="#FFFFFF" d="M74.3,9.4c-0.4,0-0.7-0.1-1-0.4c-0.3-0.2-0.4-0.6-0.4-1c0-0.4,0.1-0.7,0.4-1c0.3-0.2,0.6-0.4,1-0.4
			c0.4,0,0.7,0.1,1,0.4c0.3,0.2,0.4,0.6,0.4,1s-0.1,0.7-0.4,1C75,9.2,74.7,9.4,74.3,9.4z M75.3,23.1h-2.1V9.9h2.1V23.1z"/>
		<path fill="#FFFFFF" d="M90.5,23.1h-2.1v-7.5c0-2.8-1-4.2-3.1-4.2c-1.1,0-1.9,0.4-2.6,1.2c-0.7,0.8-1,1.8-1,3v7.5h-2.1V9.9h2.1
			v2.2h0c1-1.7,2.4-2.5,4.3-2.5c1.4,0,2.5,0.5,3.3,1.4c0.8,0.9,1.1,2.3,1.1,4L90.5,23.1L90.5,23.1z"/>
		<path fill="#FFFFFF" d="M105.1,17h-9.3c0,1.5,0.4,2.6,1.2,3.4c0.7,0.8,1.8,1.2,3.1,1.2c1.5,0,2.9-0.5,4.1-1.5v2
			c-1.2,0.8-2.7,1.3-4.6,1.3c-1.9,0-3.3-0.6-4.4-1.8s-1.6-2.9-1.6-5c0-2,0.6-3.7,1.7-5s2.6-1.9,4.3-1.9s3.1,0.6,4,1.7
			c1,1.1,1.4,2.6,1.4,4.7L105.1,17L105.1,17z M102.9,15.2c0-1.2-0.3-2.2-0.9-2.9c-0.6-0.7-1.4-1-2.4-1c-1,0-1.8,0.4-2.5,1.1
			c-0.7,0.7-1.1,1.7-1.3,2.8L102.9,15.2L102.9,15.2z"/>
		<path fill="#FFFFFF" d="M107.5,22.6v-2.3c1.2,0.8,2.4,1.3,3.8,1.3c1.9,0,2.8-0.6,2.8-1.9c0-0.4-0.1-0.6-0.2-0.9
			c-0.2-0.2-0.4-0.5-0.6-0.6c-0.3-0.2-0.6-0.4-1-0.5c-0.4-0.1-0.7-0.3-1.2-0.5c-0.6-0.2-1.1-0.5-1.6-0.7s-0.8-0.5-1.1-0.8
			c-0.3-0.3-0.5-0.6-0.7-1c-0.1-0.4-0.2-0.8-0.2-1.3c0-0.6,0.1-1.2,0.4-1.6c0.3-0.5,0.7-0.9,1.1-1.2s1-0.6,1.6-0.7
			c0.6-0.2,1.2-0.2,1.9-0.2c1.1,0,2.2,0.2,3.1,0.6v2.2c-1-0.6-2.1-1-3.4-1c-0.4,0-0.7,0-1.1,0.1c-0.3,0.1-0.6,0.2-0.8,0.4
			c-0.2,0.2-0.4,0.4-0.5,0.6c-0.1,0.2-0.2,0.5-0.2,0.7c0,0.4,0.1,0.6,0.2,0.8c0.1,0.2,0.3,0.4,0.5,0.6c0.2,0.2,0.5,0.4,0.9,0.5
			c0.4,0.1,0.7,0.3,1.2,0.5c0.6,0.2,1.1,0.5,1.6,0.7s0.8,0.5,1.2,0.8c0.3,0.3,0.6,0.6,0.7,1c0.2,0.4,0.2,0.8,0.2,1.4
			c0,0.6-0.1,1.2-0.4,1.7c-0.3,0.5-0.7,0.9-1.2,1.2c-0.5,0.3-1,0.6-1.7,0.7s-1.3,0.2-2,0.2C109.6,23.4,108.5,23.2,107.5,22.6z"/>
		<path fill="#FFFFFF" d="M118.6,22.6v-2.3c1.2,0.8,2.4,1.3,3.8,1.3c1.9,0,2.8-0.6,2.8-1.9c0-0.4-0.1-0.6-0.2-0.9s-0.4-0.5-0.6-0.6
			c-0.3-0.2-0.6-0.4-1-0.5c-0.4-0.1-0.7-0.3-1.2-0.5c-0.6-0.2-1.1-0.5-1.6-0.7c-0.5-0.2-0.8-0.5-1.1-0.8c-0.3-0.3-0.5-0.6-0.7-1
			c-0.1-0.4-0.2-0.8-0.2-1.3c0-0.6,0.1-1.2,0.4-1.6c0.3-0.5,0.7-0.9,1.1-1.2s1-0.6,1.6-0.7s1.2-0.2,1.9-0.2c1.1,0,2.2,0.2,3.1,0.6
			v2.2c-1-0.6-2.1-1-3.4-1c-0.4,0-0.7,0-1.1,0.1c-0.3,0.1-0.6,0.2-0.8,0.4c-0.2,0.2-0.4,0.4-0.5,0.6c-0.1,0.2-0.2,0.5-0.2,0.7
			c0,0.4,0.1,0.6,0.2,0.8c0.1,0.2,0.3,0.4,0.5,0.6c0.2,0.2,0.5,0.4,0.9,0.5c0.4,0.1,0.7,0.3,1.2,0.5c0.6,0.2,1.1,0.5,1.6,0.7
			s0.8,0.5,1.2,0.8c0.3,0.3,0.6,0.6,0.7,1c0.2,0.4,0.2,0.8,0.2,1.4c0,0.6-0.1,1.2-0.4,1.7c-0.3,0.5-0.7,0.9-1.2,1.2
			c-0.5,0.3-1,0.6-1.7,0.7c-0.6,0.1-1.3,0.2-2,0.2C120.8,23.4,119.7,23.2,118.6,22.6z"/>
		<path fill="#FFFFFF" d="M130.9,23.1V4.7h9v1.6h-7.3V13h6.7v1.6h-6.7v7h7.7v1.6L130.9,23.1L130.9,23.1z"/>
		<path fill="#FFFFFF" d="M148.5,16.6l4.3,6.5h-2l-2.7-4.4c-0.1-0.2-0.2-0.3-0.3-0.5c-0.1-0.2-0.2-0.4-0.3-0.6h0
			c0,0.1-0.1,0.2-0.2,0.4c-0.1,0.1-0.2,0.3-0.3,0.5l-2.9,4.6h-1.9l4.4-6.5l-4.3-6.7h1.9l2.8,4.6c0.1,0.2,0.2,0.4,0.4,0.6
			c0.1,0.2,0.2,0.4,0.2,0.5h0c0.1-0.2,0.2-0.3,0.3-0.5c0.1-0.2,0.2-0.4,0.3-0.5l2.9-4.7h1.9L148.5,16.6z"/>
		<path fill="#FFFFFF" d="M164.1,22.5c-1,0.6-2.2,0.9-3.6,0.9c-1,0-1.8-0.1-2.5-0.5c-0.7-0.3-1.4-0.8-1.9-1.4
			c-0.5-0.6-1-1.3-1.2-2.1s-0.4-1.7-0.4-2.6c0-1,0.1-1.9,0.5-2.8c0.3-0.9,0.7-1.6,1.3-2.3c0.6-0.6,1.3-1.2,2.1-1.6
			c0.8-0.4,1.8-0.6,2.9-0.6c1.1,0,2.1,0.2,3,0.6V12c-1-0.6-2-1-3.1-1c-0.8,0-1.5,0.1-2.1,0.5c-0.6,0.3-1.1,0.7-1.6,1.2
			c-0.4,0.5-0.7,1.1-1,1.8c-0.2,0.7-0.3,1.4-0.3,2.2c0,0.7,0.1,1.4,0.3,2s0.5,1.2,0.8,1.7c0.4,0.5,0.8,0.9,1.4,1.2
			c0.6,0.3,1.3,0.4,2,0.4c1.2,0,2.4-0.4,3.4-1.1L164.1,22.5L164.1,22.5z"/>
		<path fill="#FFFFFF" d="M168,16.8c0,0.8,0.1,1.5,0.3,2.2c0.2,0.6,0.5,1.2,0.9,1.6c0.4,0.5,0.8,0.8,1.4,1c0.6,0.2,1.2,0.4,1.9,0.4
			c1.5,0,2.9-0.5,4.2-1.6v1.6c-1.3,0.9-2.8,1.3-4.6,1.3c-0.9,0-1.7-0.1-2.4-0.5c-0.7-0.3-1.3-0.7-1.8-1.3s-0.9-1.3-1.2-2.2
			s-0.4-1.8-0.4-2.9c0-1,0.1-1.9,0.5-2.8c0.3-0.8,0.7-1.6,1.2-2.2c0.5-0.6,1.2-1.1,1.9-1.4c0.7-0.4,1.5-0.5,2.4-0.5
			c0.8,0,1.6,0.1,2.3,0.5c0.6,0.3,1.2,0.7,1.6,1.3c0.5,0.6,0.8,1.2,1,2c0.2,0.8,0.4,1.7,0.4,2.6v0.8C177.5,16.8,168,16.8,168,16.8z
			 M175.8,15.4c0-1.4-0.4-2.4-1-3.2c-0.6-0.7-1.5-1.1-2.6-1.1c-0.6,0-1.1,0.1-1.6,0.3c-0.5,0.2-0.9,0.5-1.3,0.8
			c-0.4,0.4-0.7,0.8-0.9,1.4c-0.2,0.5-0.4,1.1-0.5,1.8H175.8z"/>
		<path fill="#FFFFFF" d="M180.8,23.1V3.6h1.7v19.5H180.8z"/>
	</g>
</g>
</svg>
