<?xml version="1.0" encoding="utf-8"?>
<!-- Generator: Adobe Illustrator 18.0.0, SVG Export Plug-In . SVG Version: 6.00 Build 0)  -->
<!DOCTYPE svg PUBLIC "-//W3C//DTD SVG 1.1//EN" "http://www.w3.org/Graphics/SVG/1.1/DTD/svg11.dtd">
<svg version="1.1" id="Layer_1" xmlns="http://www.w3.org/2000/svg" xmlns:xlink="http://www.w3.org/1999/xlink" x="0px" y="0px"
	 viewBox="0 0 102 15" enable-background="new 0 0 102 15" xml:space="preserve">
<g id="Layer_1_1_">
</g>
<g>
	<g id="Ebene_x0020_1">
		<g>
			<path d="M2,2.5h3.1L7,6.3l-2.8,4.4H1l2.8-4.4C3.9,6.3,2,2.5,2,2.5z M13.9,15h-3.1L6.3,8.7L12,0h3.1L9.5,8.7L13.9,15z"/>
		</g>
	</g>
	<g>
		<path d="M17.5,12.8V2.6h2.9c0.9,0,1.6,0.2,2.1,0.6c0.5,0.4,0.8,1,0.8,1.7c0,0.6-0.2,1.1-0.5,1.5c-0.3,0.4-0.7,0.7-1.3,0.9v0
			c0.7,0.1,1.2,0.3,1.7,0.8c0.4,0.4,0.6,1,0.6,1.7c0,0.9-0.3,1.6-0.9,2.1c-0.6,0.5-1.4,0.8-2.4,0.8C20.6,12.8,17.5,12.8,17.5,12.8z
			 M18.7,3.7V7H20c0.7,0,1.2-0.2,1.5-0.5c0.4-0.3,0.6-0.8,0.6-1.3c0-1-0.6-1.5-2-1.5L18.7,3.7L18.7,3.7z M18.7,8.1v3.7h1.6
			c0.7,0,1.3-0.2,1.6-0.5c0.4-0.3,0.6-0.8,0.6-1.4c0-1.2-0.8-1.8-2.5-1.8L18.7,8.1L18.7,8.1z"/>
		<path d="M31.7,12.8h-1.2v-1.2h0C30,12.6,29.3,13,28.2,13c-1.7,0-2.6-1-2.6-3.1V5.5h1.2v4.2c0,1.5,0.6,2.3,1.8,2.3
			c0.6,0,1-0.2,1.4-0.6c0.4-0.4,0.5-1,0.5-1.6V5.5h1.2L31.7,12.8L31.7,12.8z"/>
		<path d="M33.6,12.6v-1.3c0.6,0.5,1.3,0.7,2.1,0.7c1,0,1.5-0.4,1.5-1c0-0.2,0-0.4-0.1-0.5c-0.1-0.1-0.2-0.3-0.4-0.4
			c-0.2-0.1-0.3-0.2-0.5-0.3c-0.2-0.1-0.4-0.2-0.6-0.3c-0.3-0.1-0.6-0.3-0.9-0.4s-0.5-0.3-0.6-0.5c-0.2-0.2-0.3-0.4-0.4-0.6
			c-0.1-0.2-0.1-0.5-0.1-0.7c0-0.4,0.1-0.6,0.2-0.9c0.2-0.3,0.4-0.5,0.6-0.7c0.3-0.2,0.6-0.3,0.9-0.4c0.3-0.1,0.7-0.1,1-0.1
			c0.6,0,1.2,0.1,1.7,0.3v1.2c-0.5-0.4-1.2-0.5-1.9-0.5c-0.2,0-0.4,0-0.6,0.1s-0.3,0.1-0.5,0.2C35.1,6.7,35,6.8,35,7
			c-0.1,0.1-0.1,0.3-0.1,0.4c0,0.2,0,0.4,0.1,0.5C35,8,35.1,8.1,35.3,8.2c0.1,0.1,0.3,0.2,0.5,0.3s0.4,0.2,0.6,0.3
			C36.7,8.8,37,9,37.3,9.1c0.3,0.1,0.5,0.3,0.7,0.5c0.2,0.2,0.3,0.4,0.4,0.6c0.1,0.2,0.1,0.5,0.1,0.8c0,0.4-0.1,0.7-0.2,0.9
			s-0.4,0.5-0.6,0.7c-0.3,0.2-0.6,0.3-0.9,0.4C36.3,13,36,13,35.6,13C34.8,13,34.2,12.9,33.6,12.6z"/>
		<path d="M40.9,5.2c-0.2,0-0.4-0.1-0.5-0.2c-0.2-0.1-0.2-0.3-0.2-0.5s0.1-0.4,0.2-0.5c0.2-0.1,0.3-0.2,0.5-0.2
			c0.2,0,0.4,0.1,0.5,0.2c0.2,0.1,0.2,0.3,0.2,0.5c0,0.2-0.1,0.4-0.2,0.5C41.3,5.1,41.1,5.2,40.9,5.2z M41.4,12.8h-1.2V5.5h1.2V12.8
			z"/>
		<path d="M49.9,12.8h-1.2V8.7c0-1.5-0.6-2.3-1.7-2.3c-0.6,0-1.1,0.2-1.5,0.7C45.2,7.5,45,8,45,8.7v4.2h-1.2V5.5H45v1.2h0
			c0.5-0.9,1.4-1.4,2.4-1.4c0.8,0,1.4,0.3,1.8,0.8c0.4,0.5,0.6,1.3,0.6,2.2L49.9,12.8L49.9,12.8z"/>
		<path d="M58,9.5h-5.2c0,0.8,0.2,1.5,0.7,1.9c0.4,0.5,1,0.7,1.7,0.7c0.8,0,1.6-0.3,2.3-0.8v1.1C56.8,12.8,56,13,54.9,13
			c-1,0-1.8-0.3-2.4-1c-0.6-0.7-0.9-1.6-0.9-2.8c0-1.1,0.3-2.1,1-2.8S54,5.3,55,5.3c1,0,1.7,0.3,2.2,0.9C57.7,6.9,58,7.7,58,8.8
			L58,9.5L58,9.5z M56.8,8.5c0-0.7-0.2-1.2-0.5-1.6C56,6.5,55.5,6.3,55,6.3c-0.5,0-1,0.2-1.4,0.6c-0.4,0.4-0.6,0.9-0.7,1.5L56.8,8.5
			L56.8,8.5z"/>
		<path d="M59.3,12.6v-1.3c0.6,0.5,1.3,0.7,2.1,0.7c1,0,1.5-0.4,1.5-1c0-0.2,0-0.4-0.1-0.5c-0.1-0.1-0.2-0.3-0.4-0.4
			C62.3,10,62.2,9.9,62,9.9c-0.2-0.1-0.4-0.2-0.6-0.3c-0.3-0.1-0.6-0.3-0.9-0.4c-0.3-0.1-0.5-0.3-0.6-0.5c-0.2-0.2-0.3-0.4-0.4-0.6
			c-0.1-0.2-0.1-0.5-0.1-0.7c0-0.4,0.1-0.6,0.2-0.9c0.2-0.3,0.4-0.5,0.6-0.7c0.3-0.2,0.6-0.3,0.9-0.4s0.7-0.1,1-0.1
			c0.6,0,1.2,0.1,1.7,0.3v1.2c-0.5-0.4-1.2-0.5-1.9-0.5c-0.2,0-0.4,0-0.6,0.1c-0.2,0.1-0.3,0.1-0.5,0.2c-0.1,0.1-0.2,0.2-0.3,0.3
			c-0.1,0.1-0.1,0.3-0.1,0.4c0,0.2,0,0.4,0.1,0.5C60.8,8,60.9,8.1,61,8.2c0.1,0.1,0.3,0.2,0.5,0.3s0.4,0.2,0.6,0.3
			C62.4,8.8,62.7,9,63,9.1c0.3,0.1,0.5,0.3,0.7,0.5c0.2,0.2,0.3,0.4,0.4,0.6c0.1,0.2,0.1,0.5,0.1,0.8c0,0.4-0.1,0.7-0.2,0.9
			c-0.2,0.3-0.4,0.5-0.6,0.7s-0.6,0.3-0.9,0.4C62,13,61.7,13,61.3,13C60.5,13,59.9,12.9,59.3,12.6z"/>
		<path d="M65.5,12.6v-1.3c0.6,0.5,1.3,0.7,2.1,0.7c1,0,1.5-0.4,1.5-1c0-0.2,0-0.4-0.1-0.5c-0.1-0.1-0.2-0.3-0.4-0.4
			c-0.2-0.1-0.3-0.2-0.5-0.3c-0.2-0.1-0.4-0.2-0.6-0.3c-0.3-0.1-0.6-0.3-0.9-0.4c-0.3-0.1-0.5-0.3-0.6-0.5c-0.2-0.2-0.3-0.4-0.4-0.6
			c-0.1-0.2-0.1-0.5-0.1-0.7c0-0.4,0.1-0.6,0.2-0.9c0.2-0.3,0.4-0.5,0.6-0.7c0.3-0.2,0.6-0.3,0.9-0.4s0.7-0.1,1-0.1
			c0.6,0,1.2,0.1,1.7,0.3v1.2c-0.5-0.4-1.2-0.5-1.9-0.5c-0.2,0-0.4,0-0.6,0.1c-0.2,0.1-0.3,0.1-0.5,0.2C67,6.7,67,6.8,66.9,7
			c-0.1,0.1-0.1,0.3-0.1,0.4c0,0.2,0,0.4,0.1,0.5C67,8,67,8.1,67.2,8.2c0.1,0.1,0.3,0.2,0.5,0.3c0.2,0.1,0.4,0.2,0.6,0.3
			c0.3,0.1,0.6,0.3,0.9,0.4c0.3,0.1,0.5,0.3,0.7,0.5c0.2,0.2,0.3,0.4,0.4,0.6c0.1,0.2,0.1,0.5,0.1,0.8c0,0.4-0.1,0.7-0.2,0.9
			c-0.2,0.3-0.4,0.5-0.6,0.7c-0.3,0.2-0.6,0.3-0.9,0.4C68.2,13,67.9,13,67.5,13C66.7,13,66.1,12.9,65.5,12.6z"/>
		<path d="M72.3,12.8V2.6h5v0.9h-4v3.8H77v0.9h-3.7V12h4.3v0.9L72.3,12.8L72.3,12.8z"/>
		<path d="M82.1,9.2l2.4,3.6h-1.1l-1.5-2.4c-0.1-0.1-0.1-0.2-0.2-0.3c-0.1-0.1-0.1-0.2-0.2-0.3h0c0,0-0.1,0.1-0.1,0.2
			c-0.1,0.1-0.1,0.2-0.2,0.3l-1.6,2.5h-1.1L81,9.3l-2.4-3.7h1.1l1.5,2.6c0.1,0.1,0.1,0.2,0.2,0.4c0.1,0.1,0.1,0.2,0.1,0.3h0
			c0.1-0.1,0.1-0.2,0.2-0.3c0.1-0.1,0.1-0.2,0.2-0.3l1.6-2.6h1L82.1,9.2z"/>
		<path d="M90.8,12.5c-0.5,0.3-1.2,0.5-2,0.5c-0.5,0-1-0.1-1.4-0.3c-0.4-0.2-0.8-0.5-1.1-0.8c-0.3-0.3-0.5-0.7-0.7-1.2
			s-0.2-0.9-0.2-1.5c0-0.5,0.1-1.1,0.3-1.5s0.4-0.9,0.7-1.3c0.3-0.4,0.7-0.6,1.2-0.9s1-0.3,1.6-0.3c0.6,0,1.2,0.1,1.7,0.4v1
			c-0.5-0.4-1.1-0.5-1.7-0.5c-0.4,0-0.8,0.1-1.2,0.3C87.6,6.5,87.3,6.8,87,7c-0.2,0.3-0.4,0.6-0.5,1c-0.1,0.4-0.2,0.8-0.2,1.2
			c0,0.4,0.1,0.8,0.2,1.1c0.1,0.4,0.3,0.7,0.5,0.9c0.2,0.3,0.5,0.5,0.8,0.6c0.3,0.2,0.7,0.2,1.1,0.2c0.7,0,1.3-0.2,1.9-0.6
			L90.8,12.5L90.8,12.5z"/>
		<path d="M93,9.3c0,0.5,0.1,0.8,0.2,1.2c0.1,0.4,0.3,0.7,0.5,0.9c0.2,0.3,0.5,0.4,0.8,0.6c0.3,0.1,0.6,0.2,1,0.2
			c0.8,0,1.6-0.3,2.3-0.9v0.9c-0.7,0.5-1.5,0.7-2.5,0.7c-0.5,0-0.9-0.1-1.3-0.3s-0.7-0.4-1-0.7c-0.3-0.3-0.5-0.7-0.6-1.2
			c-0.2-0.5-0.2-1-0.2-1.6c0-0.5,0.1-1.1,0.3-1.5c0.2-0.5,0.4-0.9,0.7-1.2c0.3-0.3,0.6-0.6,1.1-0.8c0.4-0.2,0.8-0.3,1.3-0.3
			c0.5,0,0.9,0.1,1.3,0.3c0.4,0.2,0.7,0.4,0.9,0.7C97.7,6.6,97.9,7,98,7.4s0.2,0.9,0.2,1.5v0.5C98.2,9.3,93,9.3,93,9.3z M97.3,8.5
			c0-0.8-0.2-1.4-0.5-1.8c-0.4-0.4-0.8-0.6-1.5-0.6c-0.3,0-0.6,0.1-0.9,0.2c-0.3,0.1-0.5,0.3-0.7,0.5c-0.2,0.2-0.4,0.5-0.5,0.8
			c-0.1,0.3-0.2,0.6-0.3,1H97.3z"/>
		<path d="M100,12.8V2h0.9v10.8H100z"/>
	</g>
</g>
</svg>
