<?xml version="1.0" standalone="no"?>
<!DOCTYPE svg PUBLIC "-//W3C//DTD SVG 20010904//EN"
 "http://www.w3.org/TR/2001/REC-SVG-20010904/DTD/svg10.dtd">
<svg version="1.0" xmlns="http://www.w3.org/2000/svg"
 width="1024.000000pt" height="787.000000pt" viewBox="0 0 1024.000000 787.000000"
 preserveAspectRatio="xMidYMid meet">
<metadata>

</metadata>
<g transform="translate(0.000000,787.000000) scale(0.100000,-0.100000)"
fill="#000000" stroke="none">
<path d="M4925 6859 c-727 -125 -1282 -673 -1411 -1394 -25 -140 -29 -368 -10
-510 16 -117 52 -269 77 -330 11 -28 13 -24 25 73 48 383 283 631 661 697 99
17 307 20 420 5 151 -21 320 -63 508 -127 422 -144 496 -156 639 -103 50 19
103 63 124 105 34 67 22 177 -29 279 -57 113 -121 190 -319 386 -206 203 -275
291 -322 408 -32 81 -33 236 -1 304 28 61 101 139 158 169 25 13 45 26 45 29
0 4 -37 11 -83 18 -123 18 -352 13 -482 -9z"/>
<path d="M5604 6781 c-101 -61 -118 -191 -44 -338 44 -86 112 -171 274 -343
269 -284 370 -462 369 -652 0 -64 -5 -87 -31 -142 -72 -154 -231 -246 -423
-246 -93 0 -189 17 -414 75 -238 60 -394 85 -577 92 -331 12 -530 -47 -688
-206 -87 -88 -144 -192 -182 -331 -33 -124 -31 -300 6 -423 82 -275 278 -485
589 -632 204 -97 494 -169 564 -140 64 27 68 47 68 365 0 252 -2 291 -19 338
-20 58 -64 115 -111 144 -30 18 -28 18 163 18 l192 0 0 -441 0 -442 63 7 c355
40 701 204 965 460 144 140 253 284 337 447 212 413 249 874 104 1324 -39 121
-145 330 -222 437 -203 284 -490 504 -802 617 -99 36 -138 38 -181 12z"/>
<path d="M1578 3158 c-167 -20 -284 -100 -295 -202 -7 -62 2 -90 44 -137 41
-45 128 -93 248 -134 162 -56 215 -89 241 -150 18 -43 3 -96 -37 -129 -94 -80
-354 -78 -503 2 -108 59 -192 177 -215 306 -6 33 -11 99 -11 148 l0 88 -126 0
-126 0 4 -132 c4 -106 9 -145 27 -190 62 -159 216 -282 428 -340 67 -19 104
-21 268 -21 218 0 313 15 413 64 83 41 117 89 117 168 -1 103 -77 201 -206
266 -25 13 -98 42 -162 64 -184 63 -230 94 -230 150 0 100 139 148 293 102 61
-19 81 -31 127 -76 l53 -54 -6 82 c-4 45 -10 85 -13 90 -10 10 -134 34 -206
39 -33 2 -90 1 -127 -4z"/>
<path d="M4770 3132 c20 -26 20 -38 18 -397 l-3 -370 -66 -3 -66 -3 -6 115
c-6 132 -23 180 -83 239 -49 49 -114 82 -212 110 -70 19 -111 21 -437 26
l-360 6 245 147 245 148 -136 0 c-119 0 -137 -2 -135 -16 1 -11 -91 -71 -284
-188 -157 -94 -303 -182 -325 -196 l-40 -25 530 -5 c510 -5 532 -6 575 -26 55
-25 106 -81 119 -131 6 -21 12 -74 13 -118 l3 -80 -656 -3 c-614 -2 -658 -1
-678 15 -21 18 -22 24 -24 306 l-2 289 -105 0 -105 0 -5 -64 c-9 -111 -54
-153 -161 -152 -51 0 -78 6 -115 25 l-49 25 -3 82 -3 81 -129 3 c-72 2 -130 0
-130 -4 0 -5 4 -8 8 -8 5 0 14 -11 20 -25 16 -34 16 -475 1 -530 -19 -66 -73
-107 -188 -141 -8 -3 -11 -7 -8 -10 10 -10 199 14 251 32 30 10 68 35 97 63
62 61 79 117 79 268 l0 113 63 -34 c82 -45 121 -56 201 -59 l66 -2 3 -125 c2
-105 5 -131 23 -160 26 -45 72 -76 134 -89 34 -7 380 -11 1050 -11 l1000 0 0
455 0 455 -125 0 -126 0 21 -28z"/>
<path d="M5123 3136 c15 -14 28 -35 29 -48 0 -13 0 -204 -2 -425 l-3 -403 133
0 c132 0 132 0 109 19 l-24 19 0 429 0 428 -134 3 -135 3 27 -25z"/>
<path d="M6700 2760 l0 -400 23 0 c30 0 64 25 82 60 12 24 15 86 15 361 0 328
0 333 22 356 l21 23 -81 0 -82 0 0 -400z"/>
<path d="M9098 3155 c-3 -3 -3 -190 0 -415 l5 -410 -74 0 -74 0 0 92 c0 82 -3
99 -27 144 -31 60 -84 109 -147 138 -36 15 -67 20 -137 21 -85 0 -96 -2 -160
-35 -118 -60 -184 -177 -170 -301 l7 -59 -65 0 -64 0 -7 41 c-11 63 -72 174
-131 239 -66 71 -128 111 -214 140 -55 19 -80 21 -165 17 -99 -5 -182 -26
-197 -50 -4 -7 -8 -39 -8 -72 1 -49 3 -56 12 -40 19 36 62 76 103 98 30 16 58
21 115 21 184 0 313 -130 354 -356 l7 -38 -491 0 -490 0 49 48 c76 73 81 99
81 443 l0 288 26 20 27 21 -87 0 -86 0 0 -308 c0 -234 -3 -320 -14 -355 -34
-112 -99 -151 -268 -162 l-108 -7 0 -29 0 -29 824 0 825 0 53 -53 c66 -67 121
-87 233 -87 71 0 90 4 143 30 33 17 76 49 96 70 l36 40 150 0 150 0 0 415 c0
403 4 465 32 465 4 0 8 5 8 10 0 10 -142 15 -152 5z m-382 -500 c114 -58 165
-228 108 -363 -34 -82 -113 -128 -205 -120 -71 7 -126 48 -164 122 -25 51 -30
70 -30 136 0 66 5 85 30 135 25 50 39 64 84 87 66 35 112 35 177 3z"/>
<path d="M9330 2710 l0 -450 75 0 c41 0 75 3 75 6 0 3 -7 12 -15 20 -13 13
-15 74 -15 422 0 403 0 406 22 429 l21 23 -81 0 -82 0 0 -450z"/>
<path d="M5550 2520 l0 -260 510 0 510 0 0 260 0 260 -75 0 -75 0 20 -20 c19
-19 20 -33 20 -225 l0 -205 -401 0 -400 0 3 204 c3 184 5 206 22 225 l19 21
-76 0 -77 0 0 -260z"/>
<path d="M2547 2449 c-22 -13 -47 -61 -47 -93 0 -31 42 -82 76 -90 36 -9 89
10 108 39 43 66 -4 155 -81 155 -21 0 -46 -5 -56 -11z"/>
<path d="M1340 1930 c-313 -32 -557 -221 -588 -457 -36 -269 142 -485 467
-565 154 -39 400 -26 626 32 39 10 82 23 98 29 l27 11 0 185 0 185 -135 0
c-74 0 -135 -3 -135 -6 0 -3 7 -12 15 -20 12 -12 15 -45 15 -164 l0 -148 -27
-10 c-91 -36 -250 -43 -361 -17 -213 50 -342 215 -342 435 0 275 204 444 518
428 146 -8 273 -68 343 -162 l29 -40 0 107 0 106 -65 20 c-145 45 -343 66
-485 51z"/>
<path d="M5100 1928 c0 -5 4 -8 10 -8 5 0 16 -13 25 -30 11 -22 15 -64 15
-175 l0 -146 -30 16 c-88 46 -231 39 -353 -17 -145 -67 -239 -217 -222 -356
11 -86 41 -155 93 -213 111 -123 287 -150 459 -69 l63 29 11 -22 c19 -34 27
-37 144 -37 83 1 105 3 92 11 -45 26 -47 51 -47 555 l0 476 -130 -4 c-71 -2
-130 -6 -130 -10z m18 -417 l32 -22 0 -235 0 -235 -32 -14 c-61 -25 -104 -28
-165 -10 -121 35 -191 149 -181 294 12 158 112 255 259 248 38 -2 65 -10 87
-26z"/>
<path d="M5802 1915 c-132 -37 -209 -107 -226 -207 -22 -124 76 -218 321 -312
129 -49 185 -80 220 -120 81 -92 40 -252 -80 -311 -46 -22 -69 -27 -134 -27
-136 0 -241 57 -303 166 l-30 51 0 -88 0 -88 73 -33 c95 -44 153 -57 247 -57
129 0 239 42 317 123 53 55 73 102 73 176 0 128 -62 192 -270 280 -176 75
-254 117 -289 158 -31 34 -33 41 -29 94 8 106 77 160 204 160 101 0 157 -22
226 -90 l59 -57 -3 71 -3 71 -60 24 c-76 31 -232 39 -313 16z"/>
<path d="M6439 1661 c-1 -28 -2 -56 -3 -63 -1 -7 -22 -11 -56 -12 -49 -1 -55
-4 -58 -23 -3 -20 2 -22 53 -25 l57 -3 -2 -220 c-1 -244 8 -309 48 -357 69
-82 244 -94 324 -21 28 26 21 33 -17 17 -81 -33 -198 -4 -232 58 -16 29 -18
60 -18 278 l0 245 113 3 c111 3 113 3 110 25 -3 21 -8 22 -112 24 l-109 1 -1
59 -1 58 -47 3 -48 3 -1 -50z"/>
<path d="M2128 1597 c13 -13 27 -39 32 -58 6 -19 10 -170 10 -336 l0 -303 128
0 c72 0 121 4 114 9 -24 15 -32 83 -32 294 0 192 1 208 19 226 68 68 170 71
239 8 l22 -20 0 95 0 96 -34 6 c-62 12 -142 -21 -200 -83 -17 -17 -33 -31 -38
-31 -4 0 -8 27 -8 60 l0 60 -137 0 -136 0 21 -23z"/>
<path d="M2997 1609 c-37 -5 -97 -19 -135 -31 l-67 -23 -3 -97 c-3 -100 4
-119 25 -70 40 89 137 152 235 152 90 0 133 -28 149 -97 19 -85 0 -98 -195
-148 -154 -38 -222 -70 -265 -122 -111 -135 31 -311 232 -288 70 7 143 33 197
69 l38 25 6 -24 c12 -49 29 -55 149 -55 l111 0 -22 20 c-12 11 -24 31 -27 43
-2 12 -6 128 -7 257 -3 254 -4 257 -61 318 -60 62 -208 92 -360 71z m213 -449
c0 -103 -1 -109 -25 -128 -36 -28 -108 -45 -167 -40 -42 4 -57 11 -80 37 -55
62 -30 139 59 178 60 27 195 70 206 65 4 -2 7 -52 7 -112z"/>
<path d="M3610 1588 c19 -31 20 -52 20 -339 0 -279 -2 -307 -17 -321 -10 -9
-25 -18 -33 -21 -8 -3 49 -6 127 -6 l143 -1 2 272 3 272 33 22 c76 52 201 49
256 -5 39 -40 45 -81 46 -338 l0 -223 138 0 c105 1 132 3 117 12 -44 23 -45
32 -45 272 0 132 -5 247 -11 269 -45 164 -298 214 -491 96 l-48 -29 0 50 0 50
-130 0 -130 0 20 -32z"/>
<path d="M7105 1586 c-112 -36 -207 -122 -245 -224 -30 -80 -25 -194 12 -273
107 -232 446 -274 622 -78 73 81 91 129 91 239 0 88 -3 101 -33 163 -42 85
-105 138 -199 167 -74 23 -186 26 -248 6z m177 -38 c22 -6 59 -29 83 -50 155
-136 144 -432 -19 -533 -44 -26 -58 -30 -125 -30 -65 0 -83 4 -122 27 -150 88
-196 349 -88 498 61 85 168 119 271 88z"/>
<path d="M7731 1581 l24 -19 3 -312 c3 -282 1 -314 -14 -331 -17 -18 -14 -19
72 -19 83 0 87 1 66 16 -22 15 -22 18 -22 264 l0 249 46 35 c72 55 139 68 207
41 15 -6 17 -1 17 38 0 49 -9 57 -63 57 -42 0 -104 -32 -155 -80 -23 -22 -44
-40 -47 -40 -3 0 -5 27 -5 60 l0 60 -76 0 -76 0 23 -19z"/>
<path d="M8422 1584 c-71 -19 -106 -38 -160 -87 -87 -81 -128 -178 -119 -283
13 -165 153 -301 331 -323 169 -20 322 50 377 173 10 22 17 42 15 43 -1 2 -23
-17 -48 -41 -135 -129 -356 -142 -473 -29 -54 52 -78 113 -79 198 l-1 70 301
3 301 2 -8 52 c-28 175 -230 278 -437 222z m179 -34 c80 -22 129 -78 144 -162
l7 -38 -241 0 c-156 0 -241 4 -241 10 0 28 48 105 87 139 62 56 157 75 244 51z"/>
<path d="M9109 1585 c-125 -40 -170 -176 -87 -262 19 -20 89 -62 163 -99 146
-73 175 -98 175 -151 0 -152 -251 -188 -352 -49 -16 22 -34 51 -39 64 -14 37
-19 25 -19 -53 l0 -75 42 -21 c104 -53 200 -64 301 -35 175 51 225 219 94 319
-18 13 -86 52 -152 86 -66 34 -132 75 -147 91 -89 98 64 204 199 139 39 -19
89 -75 106 -119 3 -8 6 18 6 58 l1 73 -47 21 c-61 27 -180 34 -244 13z"/>
</g>
</svg>
